<svg xmlns="http://www.w3.org/2000/svg" viewBox="0 0 500 500"><g id="freepik--background-complete--inject-12"><rect y="382.4" width="500" height="0.25" style="fill:#ebebeb"></rect><rect x="332.11" y="389.21" width="97.6" height="0.25" style="fill:#ebebeb"></rect><rect x="289" y="394.99" width="46.67" height="0.25" style="fill:#ebebeb"></rect><rect x="430.71" y="398.49" width="19.19" height="0.25" style="fill:#ebebeb"></rect><rect x="126.47" y="395.11" width="92.53" height="0.25" style="fill:#ebebeb"></rect><rect x="97.67" y="395.11" width="19.9" height="0.25" style="fill:#ebebeb"></rect><rect x="57.79" y="390.89" width="32.86" height="0.25" style="fill:#ebebeb"></rect><path d="M237,337.8H43.91a5.71,5.71,0,0,1-5.7-5.71V60.66A5.71,5.71,0,0,1,43.91,55H237a5.71,5.71,0,0,1,5.71,5.71V332.09A5.71,5.71,0,0,1,237,337.8ZM43.91,55.2a5.46,5.46,0,0,0-5.45,5.46V332.09a5.46,5.46,0,0,0,5.45,5.46H237a5.47,5.47,0,0,0,5.46-5.46V60.66A5.47,5.47,0,0,0,237,55.2Z" style="fill:#ebebeb"></path><path d="M453.31,337.8H260.21a5.72,5.72,0,0,1-5.71-5.71V60.66A5.72,5.72,0,0,1,260.21,55h193.1A5.71,5.71,0,0,1,459,60.66V332.09A5.71,5.71,0,0,1,453.31,337.8ZM260.21,55.2a5.47,5.47,0,0,0-5.46,5.46V332.09a5.47,5.47,0,0,0,5.46,5.46h193.1a5.47,5.47,0,0,0,5.46-5.46V60.66a5.47,5.47,0,0,0-5.46-5.46Z" style="fill:#ebebeb"></path><polygon points="391.07 373.19 89.03 373.19 71.02 168.31 373.06 168.31 391.07 373.19" style="fill:#f0f0f0"></polygon><polygon points="83.7 379.72 89.03 373.19 71.02 168.31 65.69 174.94 83.7 379.72" style="fill:#e0e0e0"></polygon><path d="M93,365.42,76.43,176.69a3.41,3.41,0,0,1,3.39-3.7H365.68a3.39,3.39,0,0,1,3.39,3.1l16.59,188.73a3.4,3.4,0,0,1-3.39,3.7H96.41A3.39,3.39,0,0,1,93,365.42Z" style="fill:#fafafa"></path><polygon points="131.49 373.19 85.98 373.19 82.76 382.4 128.27 382.4 131.49 373.19" style="fill:#e0e0e0"></polygon><polygon points="131.49 373.19 430.71 373.19 427.49 382.4 128.27 382.4 131.49 373.19" style="fill:#f5f5f5"></polygon><polygon points="254.7 373.19 312.06 373.19 311.44 379.22 254.09 379.22 254.7 373.19" style="fill:#e0e0e0"></polygon><path d="M341.62,154.86h72.47c6,39.76-21.77,72.47-61.53,72.47a80.81,80.81,0,0,1-37.7-9.71Z" style="fill:#e0e0e0"></path><path d="M341.62,154.86l38.19-55.51a90.19,90.19,0,0,1,22.86,24.89,81.84,81.84,0,0,1,11.42,30.62Z" style="fill:#ebebeb"></path><path d="M341.62,154.86,330.67,82.39a78,78,0,0,1,25.45,4.38,87.58,87.58,0,0,1,23.69,12.58Z" style="fill:#e6e6e6"></path><path d="M341.62,154.86l-26.76,62.76c-24.35-12.92-41.81-36.9-45.71-62.76-6-39.75,21.76-72.47,61.52-72.47Z" style="fill:#f0f0f0"></path><path d="M252.15,284.19h64.29a62.4,62.4,0,0,1,.32,16.64,55.72,55.72,0,0,1-4.08,15.5Z" style="fill:#ebebeb"></path><path d="M252.15,284.19l1.61-63.31a77.39,77.39,0,0,1,41.4,22c11.46,11.57,19,26.21,21.28,41.32Z" style="fill:#e0e0e0"></path><path d="M252.15,284.19l-57.08,22a71.4,71.4,0,0,1-7.2-22c-5.33-35.27,19.31-64.29,54.57-64.29a66.93,66.93,0,0,1,11.32,1Z" style="fill:#f0f0f0"></path><path d="M252.15,284.19l60.53,32.14c-8.47,19.87-27.88,32.14-50.81,32.14-27,0-53.75-17-66.8-42.29Z" style="fill:#fff"></path></g><g id="freepik--Shadow--inject-12"><ellipse id="freepik--path--inject-12" cx="250" cy="416.24" rx="193.89" ry="11.32" style="fill:#f5f5f5"></ellipse></g><g id="freepik--setup-analytics--inject-12"><path d="M240.59,239.39H150.51A11.52,11.52,0,0,1,139.27,229l-4.51-55.38a9.47,9.47,0,0,1,9.55-10.4h90.07a11.52,11.52,0,0,1,11.24,10.4L250.13,229A9.46,9.46,0,0,1,240.59,239.39Z" style="fill:#fff"></path><path d="M240.59,239.82H150.51A11.93,11.93,0,0,1,138.84,229l-4.51-55.39a9.9,9.9,0,0,1,10-10.86h90.07a11.93,11.93,0,0,1,11.67,10.79L250.56,229a9.9,9.9,0,0,1-10,10.86Zm-96.28-76.17a9,9,0,0,0-9.12,9.92L139.7,229a11.06,11.06,0,0,0,10.81,10h90.08A9,9,0,0,0,249.7,229l-4.51-55.39a11.06,11.06,0,0,0-10.81-10Z" style="fill:#D3E0FF"></path><path d="M216.14,223.22a28,28,0,0,1-13.24,8L201.41,227c11.09-3,18.6-13.38,17.6-25.67a28.9,28.9,0,0,0-9.31-18.78l2.87-3.13C225.57,191.41,227.18,211.19,216.14,223.22Z" style="fill:#e0e0e0"></path><path d="M212.57,179.39l-2.87,3.13a28.72,28.72,0,0,0-19.42-7.78,24.33,24.33,0,0,0-18.14,7.79l-3.39-3.14a28.54,28.54,0,0,1,21.17-9.08A33.6,33.6,0,0,1,212.57,179.39Z" style="fill:#263238"></path><path d="M202.9,231.24c-10.45,2.85-22.13-.21-30.58-8-13-12-14.61-31.81-3.57-43.83l3.39,3.14a24.48,24.48,0,0,0-6.25,18.77c1.19,14.67,14.05,26.56,28.72,26.56a26,26,0,0,0,6.8-.89Z" style="fill:#D3E0FF"></path><rect x="110.67" y="73.69" width="7.22" height="0.87" style="fill:#D3E0FF"></rect><rect x="87.22" y="73.69" width="16.44" height="0.87" style="fill:#D3E0FF"></rect><path d="M180.14,153.29H90.07A11.51,11.51,0,0,1,78.83,142.9L74.32,87.51a9.46,9.46,0,0,1,9.55-10.39h90.07a11.52,11.52,0,0,1,11.24,10.39l4.51,55.39A9.46,9.46,0,0,1,180.14,153.29Z" style="fill:#fff"></path><path d="M180.14,153.73H90.07A11.93,11.93,0,0,1,78.4,142.94L73.89,87.55a9.9,9.9,0,0,1,10-10.86h90.07a11.93,11.93,0,0,1,11.67,10.79l4.51,55.39a9.9,9.9,0,0,1-10,10.86ZM83.87,77.55a9,9,0,0,0-9.12,9.93l4.51,55.39a11.06,11.06,0,0,0,10.81,10h90.07a9,9,0,0,0,9.12-9.92l-4.51-55.39a11.07,11.07,0,0,0-10.81-10Z" style="fill:#D3E0FF"></path><polygon points="82.47 93.01 130.2 93.01 129.81 88.3 82.08 88.3 82.47 93.01" style="fill:#e0e0e0"></polygon><polygon points="177.93 93.01 130.2 93.01 129.81 88.3 177.55 88.3 177.93 93.01" style="fill:#D3E0FF"></polygon><polygon points="83.47 105.29 97.08 105.29 96.7 100.57 83.08 100.57 83.47 105.29" style="fill:#e0e0e0"></polygon><polygon points="178.93 105.29 97.08 105.29 96.7 100.57 178.55 100.57 178.93 105.29" style="fill:#D3E0FF"></polygon><polygon points="84.47 117.56 126.95 117.56 126.57 112.85 84.08 112.85 84.47 117.56" style="fill:#e0e0e0"></polygon><polygon points="179.93 117.56 126.95 117.56 126.57 112.85 179.55 112.85 179.93 117.56" style="fill:#D3E0FF"></polygon><polygon points="85.47 129.84 157.98 129.84 157.59 125.13 85.08 125.13 85.47 129.84" style="fill:#e0e0e0"></polygon><polygon points="180.93 129.84 157.98 129.84 157.59 125.13 180.54 125.13 180.93 129.84" style="fill:#D3E0FF"></polygon><polygon points="86.46 142.12 120 142.12 119.62 137.4 86.08 137.4 86.46 142.12" style="fill:#e0e0e0"></polygon><polygon points="181.93 142.12 120 142.12 119.62 137.4 181.54 137.4 181.93 142.12" style="fill:#D3E0FF"></polygon><path d="M303.28,153.29H213.21A11.51,11.51,0,0,1,202,142.9l-4.51-55.39A9.46,9.46,0,0,1,207,77.12h90.08a11.52,11.52,0,0,1,11.24,10.39l4.51,55.39A9.46,9.46,0,0,1,303.28,153.29Z" style="fill:#fff"></path><path d="M303.28,153.73H213.21a12,12,0,0,1-11.68-10.79L197,87.55a9.9,9.9,0,0,1,10-10.86h90.08a11.93,11.93,0,0,1,11.67,10.79l4.51,55.39a9.9,9.9,0,0,1-10,10.86ZM207,77.55a9,9,0,0,0-9.11,9.93l4.51,55.39a11.06,11.06,0,0,0,10.81,10h90.07a9,9,0,0,0,9.12-9.92l-4.51-55.39a11.07,11.07,0,0,0-10.81-10Z" style="fill:#D3E0FF"></path><polygon points="258.13 142.12 256.54 142.12 252.16 88.3 253.75 88.3 258.13 142.12" style="fill:#e0e0e0"></polygon><polygon points="260.53 119.75 250.5 119.75 248.78 98.73 258.82 98.73 260.53 119.75" style="fill:#D3E0FF"></polygon><polygon points="238.38 142.12 236.79 142.12 232.41 88.3 234 88.3 238.38 142.12" style="fill:#e0e0e0"></polygon><polygon points="241.17 124.42 231.13 124.42 229.63 105.99 239.66 105.99 241.17 124.42" style="fill:#D3E0FF"></polygon><polygon points="218.64 142.12 217.05 142.12 212.67 88.3 214.26 88.3 218.64 142.12" style="fill:#e0e0e0"></polygon><polygon points="220.19 109.26 210.16 109.26 209.13 96.61 219.16 96.61 220.19 109.26" style="fill:#263238"></polygon><polygon points="277.87 142.12 276.28 142.12 271.9 88.3 273.49 88.3 277.87 142.12" style="fill:#e0e0e0"></polygon><polygon points="281.24 131.69 271.21 131.69 268.53 98.73 278.56 98.73 281.24 131.69" style="fill:#263238"></polygon><polygon points="297.62 142.12 296.02 142.12 291.64 88.3 293.23 88.3 297.62 142.12" style="fill:#e0e0e0"></polygon><polygon points="301.31 135.64 291.28 135.64 289.13 109.24 299.16 109.24 301.31 135.64" style="fill:#D3E0FF"></polygon><path d="M206.89,324.77H116.81a11.53,11.53,0,0,1-11.24-10.39L101.07,259a9.46,9.46,0,0,1,9.54-10.39h90.08A11.53,11.53,0,0,1,211.93,259l4.51,55.39A9.47,9.47,0,0,1,206.89,324.77Z" style="fill:#fff"></path><path d="M206.89,325.2H116.81a11.94,11.94,0,0,1-11.67-10.79L100.63,259a9.9,9.9,0,0,1,10-10.86h90.08A11.94,11.94,0,0,1,212.36,259l4.51,55.38a9.9,9.9,0,0,1-10,10.86ZM110.61,249A9,9,0,0,0,101.5,259L106,314.34a11.06,11.06,0,0,0,10.8,10h90.08a9,9,0,0,0,9.11-9.93L211.5,259a11.07,11.07,0,0,0-10.81-10Z" style="fill:#D3E0FF"></path><polygon points="122.8 285.36 142.21 307.79 164.48 273.45 178.24 291.2 181.6 286.02 204.11 312.99 117.67 312.96 122.8 285.36" style="fill:#D3E0FF"></polygon><polygon points="187.61 286.76 178.59 306.08 149.81 260.38 136.26 289.4 131.91 282.51 117.68 312.99 204.1 312.94 187.61 286.76" style="fill:#e0e0e0"></polygon></g></svg>