<?xml version="1.0" encoding="UTF-8" standalone="no"?>
<svg
   xmlns:dc="http://purl.org/dc/elements/1.1/"
   xmlns:cc="http://creativecommons.org/ns#"
   xmlns:rdf="http://www.w3.org/1999/02/22-rdf-syntax-ns#"
   xmlns:svg="http://www.w3.org/2000/svg"
   xmlns="http://www.w3.org/2000/svg"
   xmlns:sodipodi="http://sodipodi.sourceforge.net/DTD/sodipodi-0.dtd"
   xmlns:inkscape="http://www.inkscape.org/namespaces/inkscape"
   version="1.0"
   width="1055.6693pt"
   height="338.83392pt"
   viewBox="0 0 1055.6693 338.83393"
   preserveAspectRatio="xMidYMid meet"
   id="svg4616"
   sodipodi:docname="logo_s2m.svg"
   inkscape:version="0.92.2 (5c3e80d, 2017-08-06)">
  <defs
     id="defs4620" />
  <sodipodi:namedview
     pagecolor="#ffffff"
     bordercolor="#666666"
     borderopacity="1"
     objecttolerance="10"
     gridtolerance="10"
     guidetolerance="10"
     inkscape:pageopacity="0"
     inkscape:pageshadow="2"
     inkscape:window-width="1366"
     inkscape:window-height="705"
     id="namedview4618"
     showgrid="false"
     inkscape:zoom="0.64070335"
     inkscape:cx="555.02019"
     inkscape:cy="159.4409"
     inkscape:window-x="-8"
     inkscape:window-y="-8"
     inkscape:window-maximized="1"
     inkscape:current-layer="svg4616" />
  <metadata
     id="metadata4602">
Created by potrace 1.15, written by Peter Selinger 2001-2017
<rdf:RDF>
  <cc:Work
     rdf:about="">
    <dc:format>image/svg+xml</dc:format>
    <dc:type
       rdf:resource="http://purl.org/dc/dcmitype/StillImage" />
  </cc:Work>
</rdf:RDF>
</metadata>
  <path
     style="fill:#552200;stroke:none;stroke-width:0.21493535"
     inkscape:connector-curvature="0"
     id="path4604"
     d="m 942.61042,47.166659 c -15.04546,6.233126 -27.94159,12.036379 -28.37145,12.46625 -0.42988,0.42987 5.15844,5.588319 12.46624,11.391573 20.84873,16.335086 47.07085,44.061748 56.09812,59.107218 10.53184,18.05457 15.26041,33.95978 15.04548,52.44422 -0.21493,17.62469 -4.51364,31.38056 -15.26041,49.865 l -7.73767,13.54093 h -77.8066 c -77.59166,0 -77.80659,0 -76.73192,4.51363 0.64481,2.3643 6.01819,9.6721 11.82145,16.12016 l 10.74676,11.6065 h 65.12542 65.12541 l 16.97988,-12.68118 c 44.06177,-32.88511 65.34037,-67.27475 65.55527,-106.60793 0.2149,-29.44613 -11.6065,-56.52799 -36.7539,-85.114389 -12.2513,-13.970797 -41.69748,-38.473426 -45.99619,-38.473426 -1.50455,0 -15.04548,5.373383 -30.30589,11.821444 z" />
  <path
     style="fill:#552200;stroke:none;stroke-width:0.21493535"
     inkscape:connector-curvature="0"
     id="path4606"
     d="m 66.104088,78.547219 c -32.67016,5.158449 -55.02344,21.708471 -63.62086,46.855911 -3.00908999,8.81234 -3.43895999,30.09094 -0.42987,37.61367 1.07468,3.0091 5.37338,9.24222 9.67209,13.9708 9.02729,9.88702 21.49353,15.26041 51.15461,21.9234 24.71756,5.37338 32.88511,9.24222 35.46434,16.76496 3.438962,9.88703 -1.71949,18.91431 -12.89613,21.92341 -18.9143,4.94352 -55.02344,-1.07468 -71.35853,-12.03638 -4.29871,-3.0091 -8.38248,-5.37338 -8.81235,-5.37338 -0.6448,0 -1.07468,6.01819 -1.07468,13.32599 0.21494,30.09094 15.69029,44.92149 51.79943,48.79031 32.45523,3.65391 64.265662,-4.72856 79.955932,-20.84872 22.56822,-23.21302 22.99809,-66.20008 0.64481,-83.17998 -9.67208,-7.3078 -18.9143,-10.74676 -47.715632,-18.2695 -13.97081,-3.43897 -27.51173,-7.9526 -30.30589,-9.67209 -6.0182,-4.08377 -6.66299,-13.75587 -1.07468,-19.98899 13.11106,-15.04547 66.415022,-10.3169 87.048822,7.73767 3.43896,3.0091 3.65389,2.36429 3.65389,-11.60649 0,-24.2877 -10.96169,-38.043564 -35.24939,-44.70656 C 98.559328,77.687478 78.570348,76.397865 66.104088,78.547219 Z" />
  <path
     style="fill:#552200;stroke:none;stroke-width:0.21493535"
     inkscape:connector-curvature="0"
     id="path4608"
     d="m 235.04328,78.547219 c -26.43706,2.579224 -46.64098,14.400668 -53.73384,31.165621 -1.71948,3.86884 -3.00909,13.75587 -3.00909,21.70847 v 14.40066 l 7.09285,-6.87792 c 12.03638,-11.60651 25.57731,-16.33508 48.14552,-16.33508 18.91432,-0.21494 19.98899,0 26.22212,6.01819 5.58831,5.37338 6.66299,7.95259 6.66299,16.55001 0,6.87794 -1.28961,11.82144 -4.51364,15.69028 -4.2987,5.37338 -23.42795,21.49353 -44.92149,37.61369 -26.86692,19.98898 -42.98707,41.69745 -42.98707,57.8176 0,5.37338 1.93442,9.24222 7.30781,14.6156 l 7.52274,7.52275 62.33124,-0.64481 62.54619,-0.64481 5.80325,-5.80325 c 4.94352,-5.15845 6.0182,-8.16754 6.66299,-21.06367 l 0.85975,-15.04548 h -45.35136 c -28.15653,0 -45.13642,-0.85973 -44.27668,-1.9344 0.64481,-1.28963 12.46625,-10.10197 26.43705,-19.77407 48.57539,-34.17471 55.66825,-42.34226 57.81761,-67.91956 3.43896,-44.06174 -33.31498,-72.433204 -86.61894,-67.059821 z" />
  <path
     style="fill:#552200;stroke:none;stroke-width:0.21493535"
     inkscape:connector-curvature="0"
     id="path4610"
     d="m 371.95709,90.583598 c -2.14935,8.382479 -7.52273,45.781222 -9.88703,68.349432 -0.85973,7.09287 -1.71948,15.04548 -2.14936,17.83964 -0.42986,2.79415 -1.50454,21.06366 -2.36428,40.83771 -1.07468,30.09095 -0.85974,37.18382 1.93442,43.84681 4.94352,12.03638 14.40067,16.76495 32.88511,16.76495 h 15.26041 l 1.50454,-37.18381 c 2.36428,-59.96696 3.86884,-84.03972 5.58833,-85.97414 0.85973,-1.07468 5.15844,9.6721 9.67208,23.64289 17.40977,55.66826 22.78315,70.28386 29.01627,80.38583 9.24222,14.40066 17.83964,19.12923 33.74485,19.12923 h 12.89613 l 7.3078,-15.69026 c 3.86882,-8.38249 13.97079,-36.53903 22.56821,-62.5462 8.38248,-25.79224 15.90521,-46.2111 16.33509,-45.13642 1.07467,1.71948 2.57921,24.07276 4.9435,81.03062 0.64481,14.18574 2.3643,25.57731 4.29872,29.23122 4.51363,9.02727 15.04546,13.11104 34.60458,13.11104 h 16.55002 l -1.28961,-41.48251 c -1.50454,-43.41694 -6.23312,-97.15077 -10.3169,-118.21444 -1.50454,-6.87793 -4.72858,-15.69028 -7.09286,-19.344178 -6.66299,-9.887025 -21.06366,-16.550021 -35.89421,-16.550021 -11.39157,0 -12.68118,0.644805 -18.9143,7.522737 -3.65391,4.298707 -9.02729,12.251312 -11.82145,18.054572 -6.87792,13.32599 -32.2403,75.87217 -35.89421,87.90854 -3.22402,10.74677 -4.51363,9.88703 -9.45715,-6.01818 -1.93442,-6.44807 -10.10196,-28.15654 -17.83963,-47.93057 C 438.15717,91.01347 428.70002,82.630991 390.87139,82.630991 h -16.76495 z" />
  <path
     style="fill:#552200;stroke:none;stroke-width:0.21493535"
     inkscape:connector-curvature="0"
     id="path4612"
     d="m 798.81868,114.44142 c -73.72282,61.90137 -53.5189,142.71708 53.94877,215.15027 l 13.75586,9.24222 9.88703,-7.09287 c 5.58832,-3.86882 16.55002,-12.46625 24.50263,-18.9143 l 14.40067,-12.03639 -35.67927,-1.07467 -35.67927,-1.07468 -13.54092,-14.6156 c -15.04548,-16.33509 -27.72666,-39.11823 -30.09095,-54.37864 -3.86884,-26.00717 15.26041,-65.1254 42.34226,-86.61894 l 10.3169,-8.16754 -6.87794,-6.44806 c -5.58831,-5.15844 -20.63379,-17.19483 -30.52081,-24.50263 -1.28962,-0.85974 -8.59742,3.6539 -16.76496,10.53183 z" />
  <path
     style="fill:#00aad4;stroke-width:3.71884274"
     d="m 766.18507,278.86816 c -6.40357,-6.6474 -24.14254,-38.13249 -30.25343,-49.79883 -23.15193,-44.1994 -18.20641,-88.76425 13.63036,-122.81249 18.94072,-20.256263 45.47662,-40.057621 53.67922,-40.057621 2.82743,0 20.09648,10.158669 38.37593,22.576172 64.95367,44.121649 87.05617,74.009029 87.12457,117.810049 l 0.0383,23.24268 h 26.3379 l 3.5127,-15.80566 c 5.17583,-23.28914 9.21368,-45.08949 -1.9116,-68.98682 C 941.1636,111.62237 910.476,83.399402 807.91725,8.182617 L 796.76077,0 763.29202,17.134278 c -38.77243,19.848301 -72.41939,50.646568 -84.04544,76.929199 -9.06211,20.486453 -9.97282,56.192343 -2.00391,78.626943 10.49114,29.53511 51.07461,85.36329 79.3772,105.866 l 9.5652,0.31174"
     id="path4515-5"
     inkscape:connector-curvature="0"
     sodipodi:nodetypes="cccsccccsscccsccc" />
</svg>
